<svg width="101" height="80" viewBox="0 0 101 80" fill="none" xmlns="http://www.w3.org/2000/svg">
<path d="M97.408 42.7526L79.412 35.81C78.7715 35.5632 77.4437 35.2392 75.944 35.81L57.9481 42.7526C56.2766 43.4005 55.183 44.9124 55.183 46.5941C55.183 63.8115 65.915 75.7218 75.944 79.5942C77.4437 80.165 78.7559 79.841 79.412 79.5942C87.4258 76.5086 100.173 65.8017 100.173 46.5941C100.173 44.9124 99.0795 43.4005 97.408 42.7526ZM77.678 72.266V43.092L92.5966 48.8465C91.7218 62.2842 83.0831 69.7358 77.678 72.266ZM35.1875 40.423C46.2319 40.423 55.183 31.5828 55.183 20.6753C55.183 9.76788 46.2319 0.927734 35.1875 0.927734C24.1431 0.927734 15.192 9.76788 15.192 20.6753C15.192 31.5828 24.1431 40.423 35.1875 40.423ZM50.1842 46.5941C50.1842 46.2084 50.3091 45.8535 50.356 45.4833C49.9655 45.4678 49.5905 45.3599 49.1844 45.3599H46.5756C43.1076 46.9335 39.2491 47.8283 35.1875 47.8283C31.1259 47.8283 27.283 46.9335 23.7994 45.3599H21.1906C9.59946 45.3599 0.195312 54.6474 0.195312 66.0948V72.5128C0.195312 76.6012 3.55394 79.9182 7.69364 79.9182H62.6814C63.7436 79.9182 64.759 79.6868 65.6807 79.3011C57.2451 72.6825 50.1842 61.2968 50.1842 46.5941Z" fill="#F9F9F9"/>
</svg>
