<svg width="47" height="38" viewBox="0 0 47 38" fill="none" xmlns="http://www.w3.org/2000/svg">
<path d="M45.5593 20.0166L37.2494 16.7836C36.9536 16.6686 36.3405 16.5177 35.648 16.7836L27.3381 20.0166C26.5663 20.3184 26.0613 21.0225 26.0613 21.8056C26.0613 29.8237 31.017 35.3702 35.648 37.1736C36.3405 37.4394 36.9464 37.2885 37.2494 37.1736C40.9499 35.7367 46.8361 30.7505 46.8361 21.8056C46.8361 21.0225 46.3311 20.3184 45.5593 20.0166ZM36.4487 33.7609V20.1747L43.3376 22.8546C42.9336 29.1124 38.9446 32.5826 36.4487 33.7609ZM16.8281 18.9318C21.928 18.9318 26.0613 14.815 26.0613 9.73541C26.0613 4.65587 21.928 0.539062 16.8281 0.539062C11.7282 0.539062 7.59485 4.65587 7.59485 9.73541C7.59485 14.815 11.7282 18.9318 16.8281 18.9318ZM23.753 21.8056C23.753 21.626 23.8107 21.4608 23.8323 21.2883C23.652 21.2811 23.4789 21.2309 23.2913 21.2309H22.0867C20.4853 21.9637 18.7036 22.3804 16.8281 22.3804C14.9526 22.3804 13.1781 21.9637 11.5695 21.2309H10.3648C5.01243 21.2309 0.669922 25.556 0.669922 30.887V33.8758C0.669922 35.7798 2.22082 37.3245 4.13238 37.3245H29.5238C30.0143 37.3245 30.4832 37.2167 30.9088 37.0371C27.0135 33.9549 23.753 28.6526 23.753 21.8056Z" fill="#F5C64F"/>
</svg>
