<svg width="101" height="89" viewBox="0 0 101 89" fill="none" xmlns="http://www.w3.org/2000/svg">
<path d="M31.392 53.5504C19.9633 53.5504 10.6985 44.3638 10.6985 33.0316C10.6985 21.6994 19.9633 12.5128 31.392 12.5128C42.8206 12.5128 52.0854 21.6994 52.0854 33.0316C52.0854 44.3638 42.8206 53.5504 31.392 53.5504Z" fill="#F9F9F9"/>
<path d="M30.8115 57.386H32.3587C39.8933 57.4469 47.1608 60.1609 52.8642 65.0433C58.5675 69.9258 62.3355 76.659 63.4955 84.0412C63.4955 85.3836 63.1087 88.6436 58.2738 88.6436H5.66996C0.835044 88.6436 0.448242 85.7671 0.448242 84.0412C1.28553 76.6602 4.85345 69.8493 10.462 64.9257C16.0705 60.0021 23.3211 57.3157 30.8115 57.386Z" fill="#F9F9F9"/>
<path d="M58.157 52.5409C57.552 51.941 58.0057 51.4911 58.0057 51.4911C61.0377 47.0655 62.6701 41.8441 62.6944 36.4941C62.7628 31.0144 61.0674 25.6559 57.8545 21.1971C57.8545 21.1175 57.8545 21.1971 57.7032 21.0471C57.3177 20.5817 57.1042 19.9996 57.0982 19.3974V3.20058C57.1513 2.42242 57.4871 1.68972 58.0433 1.13822C58.5995 0.586716 59.3384 0.253808 60.1232 0.201172H97.6324C98.4384 0.266937 99.1919 0.624117 99.7496 1.20479C100.307 1.78546 100.63 2.54912 100.657 3.35055V72.637H71.1642C69.2476 64.6715 64.6618 57.5866 58.157 52.5409ZM83.8689 64.0886C83.899 64.9144 84.2433 65.6983 84.8325 66.2826C85.4218 66.8669 86.2123 67.2082 87.0451 67.238H90.2213C91.0541 67.2082 91.8447 66.8669 92.4339 66.2826C93.0232 65.6983 93.3675 64.9144 93.3975 64.0886V60.9393C93.3675 60.1135 93.0232 59.3296 92.4339 58.7453C91.8447 58.161 91.0541 57.8197 90.2213 57.7899H87.0451C86.2123 57.8197 85.4218 58.161 84.8325 58.7453C84.2433 59.3296 83.899 60.1135 83.8689 60.9393V64.0886ZM83.8689 48.3417C83.899 49.1675 84.2433 49.9514 84.8325 50.5357C85.4218 51.12 86.2123 51.4613 87.0451 51.4911H90.2213C91.0541 51.4613 91.8447 51.12 92.4339 50.5357C93.0232 49.9514 93.3675 49.1675 93.3975 48.3417V45.1924C93.3675 44.3666 93.0232 43.5827 92.4339 42.9984C91.8447 42.4141 91.0541 42.0728 90.2213 42.043H87.0451C86.2123 42.0728 85.4218 42.4141 84.8325 42.9984C84.2433 43.5827 83.899 44.3666 83.8689 45.1924V48.3417ZM83.8689 32.5948C83.899 33.4206 84.2433 34.2045 84.8325 34.7888C85.4218 35.373 86.2123 35.7144 87.0451 35.7442H90.2213C91.0541 35.7144 91.8447 35.373 92.4339 34.7888C93.0232 34.2045 93.3675 33.4206 93.3975 32.5948V29.4454C93.3675 28.6197 93.0232 27.8358 92.4339 27.2515C91.8447 26.6672 91.0541 26.3258 90.2213 26.2961H87.0451C86.2123 26.3258 85.4218 26.6672 84.8325 27.2515C84.2433 27.8358 83.899 28.6197 83.8689 29.4454V32.5948ZM83.8689 16.8479C83.899 17.6737 84.2433 18.4576 84.8325 19.0418C85.4218 19.6261 86.2123 19.9675 87.0451 19.9973H90.2213C91.0541 19.9675 91.8447 19.6261 92.4339 19.0418C93.0232 18.4576 93.3675 17.6737 93.3975 16.8479V13.6985C93.3675 12.8728 93.0232 12.0889 92.4339 11.5046C91.8447 10.9203 91.0541 10.5789 90.2213 10.5491H87.0451C86.2123 10.5789 85.4218 10.9203 84.8325 11.5046C84.2433 12.0889 83.899 12.8728 83.8689 13.6985V16.8479ZM65.8706 48.3417C65.9006 49.1675 66.2449 49.9514 66.8341 50.5357C67.4234 51.12 68.214 51.4613 69.0468 51.4911H72.2229C73.0557 51.4613 73.8463 51.12 74.4355 50.5357C75.0248 49.9514 75.3691 49.1675 75.3991 48.3417V45.1924C75.3691 44.3666 75.0248 43.5827 74.4355 42.9984C73.8463 42.4141 73.0557 42.0728 72.2229 42.043H69.0468C68.214 42.0728 67.4234 42.4141 66.8341 42.9984C66.2449 43.5827 65.9006 44.3666 65.8706 45.1924V48.3417ZM65.8706 32.5948C65.9006 33.4206 66.2449 34.2045 66.8341 34.7888C67.4234 35.373 68.214 35.7144 69.0468 35.7442H72.2229C73.0557 35.7144 73.8463 35.373 74.4355 34.7888C75.0248 34.2045 75.3691 33.4206 75.3991 32.5948V29.4454C75.3691 28.6197 75.0248 27.8358 74.4355 27.2515C73.8463 26.6672 73.0557 26.3258 72.2229 26.2961H69.0468C68.214 26.3258 67.4234 26.6672 66.8341 27.2515C66.2449 27.8358 65.9006 28.6197 65.8706 29.4454V32.5948ZM65.8706 16.8479C65.9006 17.6737 66.2449 18.4576 66.8341 19.0418C67.4234 19.6261 68.214 19.9675 69.0468 19.9973H72.2229C73.0557 19.9675 73.8463 19.6261 74.4355 19.0418C75.0248 18.4576 75.3691 17.6737 75.3991 16.8479V13.6985C75.3691 12.8728 75.0248 12.0889 74.4355 11.5046C73.8463 10.9203 73.0557 10.5789 72.2229 10.5491H69.0468C68.214 10.5789 67.4234 10.9203 66.8341 11.5046C66.2449 12.0889 65.9006 12.8728 65.8706 13.6985V16.8479Z" fill="#F9F9F9"/>
</svg>
