<svg width="773" height="143" viewBox="0 0 773 143" fill="none" xmlns="http://www.w3.org/2000/svg">
<path d="M0.562039 107V0.957166H44.3783C45.4093 0.957166 46.7349 1.00626 48.355 1.10445C49.9751 1.15354 51.4724 1.30082 52.847 1.54629C58.9838 2.47908 64.0405 4.51647 68.0171 7.65848C72.0428 10.8005 75.0129 14.7771 76.9276 19.5883C78.8914 24.3504 79.8732 29.6526 79.8732 35.4947C79.8732 41.2878 78.8914 46.5899 76.9276 51.4012C74.9639 56.1633 71.9691 60.1153 67.9434 63.2573C63.9668 66.3993 58.9347 68.4367 52.847 69.3695C51.4724 69.5659 49.9505 69.7132 48.2813 69.8114C46.6612 69.9096 45.3602 69.9586 44.3783 69.9586H18.3095V107H0.562039ZM18.3095 53.3895H43.6419C44.6238 53.3895 45.7284 53.3404 46.9558 53.2422C48.1831 53.144 49.3123 52.9476 50.3433 52.653C53.2889 51.9166 55.5963 50.6157 57.2655 48.7501C58.9838 46.8845 60.1866 44.7735 60.8739 42.417C61.6103 40.0605 61.9785 37.753 61.9785 35.4947C61.9785 33.2364 61.6103 30.929 60.8739 28.5725C60.1866 26.1669 58.9838 24.0313 57.2655 22.1657C55.5963 20.3002 53.2889 18.9992 50.3433 18.2628C49.3123 17.9682 48.1831 17.7964 46.9558 17.7473C45.7284 17.6491 44.6238 17.6 43.6419 17.6H18.3095V53.3895ZM94.6267 107V27.4679H110.312V46.8354L108.398 44.3316C109.379 41.6806 110.68 39.275 112.301 37.1148C113.97 34.9056 115.958 33.0891 118.265 31.6654C120.229 30.3399 122.389 29.3089 124.746 28.5725C127.151 27.787 129.606 27.3206 132.11 27.1733C134.614 26.9769 137.044 27.0751 139.4 27.4679V44.0371C137.044 43.3498 134.319 43.1288 131.226 43.3743C128.182 43.6198 125.433 44.4789 122.978 45.9517C120.524 47.2773 118.511 48.971 116.94 51.0329C115.418 53.0949 114.289 55.4514 113.552 58.1025C112.816 60.7044 112.448 63.5273 112.448 66.5712V107H94.6267ZM161.465 142.348L176.782 100.299L177.077 112.67L142.392 27.4679H160.876L185.472 90.5044H180.759L204.692 27.4679H222.44L178.108 142.348H161.465ZM285.934 107C280.681 107.982 275.526 108.399 270.47 108.252C265.462 108.154 260.97 107.245 256.993 105.527C253.017 103.76 249.997 100.986 247.935 97.2058C246.119 93.7692 245.162 90.259 245.063 86.6751C244.965 83.0913 244.916 79.041 244.916 74.5244V5.37561H262.59V73.4934C262.59 76.6845 262.615 79.4829 262.664 81.8885C262.762 84.2941 263.277 86.2578 264.21 87.7797C265.977 90.7254 268.8 92.37 272.679 92.7137C276.557 93.0573 280.976 92.861 285.934 92.1245V107ZM230.483 41.386V27.4679H285.934V41.386H230.483ZM325.276 109.209C319.532 109.209 314.671 108.129 310.695 105.969C306.718 103.76 303.699 100.839 301.637 97.2058C299.624 93.5728 298.618 89.5717 298.618 85.2023C298.618 81.373 299.256 77.9364 300.532 74.8926C301.809 71.7997 303.773 69.1486 306.424 66.9394C309.075 64.6811 312.511 62.84 316.733 61.4163C319.924 60.3853 323.656 59.4526 327.927 58.618C332.247 57.7834 336.911 57.0224 341.918 56.3351C346.975 55.5987 352.253 54.8132 357.751 53.9786L351.418 57.587C351.467 52.0885 350.24 48.0382 347.736 45.4362C345.232 42.8343 341.01 41.5333 335.07 41.5333C331.486 41.5333 328.025 42.3679 324.687 44.0371C321.348 45.7063 319.016 48.5783 317.691 52.653L301.49 47.5718C303.453 40.846 307.185 35.4456 312.683 31.3708C318.231 27.296 325.693 25.2587 335.07 25.2587C342.139 25.2587 348.35 26.4124 353.701 28.7198C359.101 31.0272 363.102 34.8074 365.704 40.0605C367.128 42.8588 367.987 45.7308 368.282 48.6764C368.576 51.573 368.724 54.7395 368.724 58.1761V107H353.186V89.768L355.763 92.5664C352.179 98.3104 347.982 102.532 343.17 105.233C338.408 107.884 332.443 109.209 325.276 109.209ZM328.81 95.0702C332.836 95.0702 336.273 94.3583 339.12 92.9346C341.968 91.5109 344.226 89.768 345.895 87.7061C347.613 85.6442 348.767 83.7049 349.356 81.8885C350.289 79.6301 350.804 77.0527 350.903 74.1562C351.05 71.2105 351.124 68.8295 351.124 67.013L356.573 68.6331C351.222 69.4677 346.631 70.2041 342.802 70.8423C338.973 71.4806 335.684 72.0942 332.934 72.6834C330.185 73.2234 327.755 73.8371 325.644 74.5244C323.582 75.2608 321.839 76.1199 320.415 77.1018C318.992 78.0837 317.887 79.2129 317.102 80.4893C316.365 81.7657 315.997 83.2631 315.997 84.9814C315.997 86.9451 316.488 88.688 317.47 90.2099C318.452 91.6827 319.875 92.861 321.741 93.7446C323.656 94.6283 326.012 95.0702 328.81 95.0702ZM442.905 107V68.7068C442.905 66.203 442.734 63.4292 442.39 60.3853C442.046 57.3415 441.236 54.4204 439.96 51.6221C438.732 48.7746 436.867 46.4427 434.363 44.6262C431.908 42.8097 428.57 41.9015 424.348 41.9015C422.09 41.9015 419.856 42.2697 417.647 43.0061C415.437 43.7425 413.424 45.0189 411.608 46.8354C409.841 48.6028 408.417 51.0575 407.337 54.1995C406.257 57.2924 405.717 61.269 405.717 66.1293L395.186 61.6372C395.186 54.8623 396.487 48.7255 399.089 43.227C401.74 37.7285 405.619 33.3591 410.724 30.1189C415.83 26.8297 422.114 25.185 429.576 25.185C435.468 25.185 440.328 26.1669 444.157 28.1306C447.987 30.0944 451.03 32.5982 453.289 35.642C455.547 38.6858 457.216 41.926 458.296 45.3626C459.376 48.7992 460.064 52.0639 460.358 55.1568C460.702 58.2007 460.874 60.6799 460.874 62.5946V107H442.905ZM387.748 107V27.4679H403.581V52.1376H405.717V107H387.748ZM514.954 109.209C506.902 109.209 499.833 107.466 493.745 103.981C487.658 100.495 482.895 95.6593 479.459 89.4735C476.071 83.2876 474.378 76.169 474.378 68.1176C474.378 59.428 476.047 51.8921 479.385 45.5099C482.724 39.0786 487.363 34.0956 493.303 30.5608C499.244 27.026 506.117 25.2587 513.923 25.2587C522.171 25.2587 529.166 27.1979 534.91 31.0763C540.704 34.9056 544.999 40.3305 547.798 47.3509C550.596 54.3713 551.651 62.6437 550.964 72.1679H533.364V65.6875C533.315 57.047 531.793 50.7384 528.798 46.7618C525.804 42.7852 521.091 40.7969 514.659 40.7969C507.393 40.7969 501.993 43.0552 498.458 47.5718C494.923 52.0394 493.156 58.5934 493.156 67.2339C493.156 75.2853 494.923 81.5203 498.458 85.9387C501.993 90.3572 507.148 92.5664 513.923 92.5664C518.292 92.5664 522.048 91.6091 525.19 89.6944C528.381 87.7306 530.836 84.9077 532.554 81.2257L550.08 86.5278C547.037 93.6956 542.324 99.2677 535.941 103.244C529.608 107.221 522.612 109.209 514.954 109.209ZM487.559 72.1679V58.7652H542.275V72.1679H487.559ZM597.22 109.283C591.329 109.283 586.468 108.301 582.639 106.337C578.81 104.373 575.766 101.87 573.507 98.8259C571.249 95.782 569.58 92.5418 568.5 89.1053C567.42 85.6687 566.708 82.4285 566.364 79.3847C566.07 76.2918 565.922 73.788 565.922 71.8733V27.4679H583.891V65.7611C583.891 68.2158 584.063 70.9896 584.406 74.0825C584.75 77.1264 585.535 80.072 586.763 82.9194C588.039 85.7178 589.905 88.0252 592.359 89.8417C594.863 91.6582 598.226 92.5664 602.448 92.5664C604.707 92.5664 606.94 92.1982 609.15 91.4618C611.359 90.7254 613.347 89.4735 615.115 87.7061C616.931 85.8896 618.379 83.4104 619.459 80.2684C620.539 77.1264 621.079 73.1498 621.079 68.3385L631.61 72.8306C631.61 79.6056 630.285 85.7423 627.633 91.2409C625.031 96.7394 621.178 101.133 616.072 104.423C610.966 107.663 604.682 109.283 597.22 109.283ZM623.215 107V82.3303H621.079V27.4679H638.901V107H623.215ZM755.102 107V58.6916C755.102 53.2422 753.752 48.9956 751.052 45.9517C748.352 42.8588 744.694 41.3124 740.08 41.3124C737.232 41.3124 734.679 41.9751 732.421 43.3007C730.163 44.5771 728.371 46.4918 727.045 49.0446C725.72 51.5484 725.057 54.5432 725.057 58.0288L717.177 53.3895C717.128 47.8909 718.356 43.0552 720.859 38.8822C723.412 34.6601 726.849 31.3708 731.169 29.0143C735.489 26.6578 740.301 25.4796 745.603 25.4796C754.391 25.4796 761.116 28.1306 765.78 33.4328C770.493 38.6858 772.85 45.6081 772.85 54.1995V107H755.102ZM659.443 107V27.4679H675.128V52.1376H677.338V107H659.443ZM707.383 107V58.9125C707.383 53.3649 706.033 49.0446 703.333 45.9517C700.633 42.8588 696.951 41.3124 692.287 41.3124C687.77 41.3124 684.137 42.8588 681.388 45.9517C678.688 49.0446 677.338 53.0703 677.338 58.0288L669.384 52.7267C669.384 47.5718 670.661 42.9325 673.214 38.8086C675.767 34.6847 679.203 31.4445 683.523 29.088C687.893 26.6824 692.778 25.4796 698.178 25.4796C704.118 25.4796 709.077 26.756 713.053 29.3089C717.079 31.8127 720.074 35.2493 722.038 39.6186C724.05 43.9389 725.057 48.8237 725.057 54.2731V107H707.383Z" fill="#272C6C"/>
</svg>
