<svg id="Layer_1" data-name="Layer 1" xmlns="http://www.w3.org/2000/svg" viewBox="0 0 546.58 546.58"><defs><style>.cls-1{fill:#272d6e;}.cls-2{fill:#ebbe4c;}.cls-3{fill:#fff;}</style></defs><title>prytaneumm logo</title><circle class="cls-1" cx="273.29" cy="273.29" r="273.29"/><path class="cls-2" d="M934.4,569.62a29.44,29.44,0,0,1-58.81-.11c0-.47,0-.93,0-1.4a29.37,29.37,0,0,1,10-22.06,29,29,0,0,1,2.6-2.06,29.3,29.3,0,0,0,11.81-16.39,29.62,29.62,0,0,0,.94-7.41c0-.29,0-.57,0-.85A28.16,28.16,0,0,1,914,540.06a25.33,25.33,0,0,1,.18,3v.18a28.09,28.09,0,0,1-3.35,13.35,8.1,8.1,0,0,0,6.85,12h.14a13,13,0,0,0,13.05-13,12.19,12.19,0,0,0-.14-1.91A29.32,29.32,0,0,1,934.4,569.62Z" transform="translate(-626.71 -326.71)"/><path class="cls-3" d="M847.3,605V481.52h83.39q4.09,0,9.41.43a73.91,73.91,0,0,1,10.08,1.52q14.94,3.46,24.25,12.67a56.89,56.89,0,0,1,13.75,21.66,75,75,0,0,1,0,50.89,56.89,56.89,0,0,1-13.75,21.66,44.33,44.33,0,0,1-10.77,7.8c-2.75,23.63-10.49,35.8-22.13,42a.61.61,0,0,0,.43,1.14c2.83-.65,17.17-2.4,33-8,20.78-7.36,38.11-22.44,47.33-42.45.34-.75.68-1.5,1-2.26q8.77-20.45,8.77-45.36,0-24.69-8.67-45.16a84.43,84.43,0,0,0-25.87-34q-17.24-13.53-42.56-17.42a92.31,92.31,0,0,0-12.13-1.42c-4.19-.21-7.79-.32-10.83-.32H808.75V756.79H847.3V605Z" transform="translate(-626.71 -326.71)"/><path class="cls-3" d="M943.81,597.93a6,6,0,0,1,6,7,45.31,45.31,0,0,1-89.53,0,6,6,0,0,1,6-7Q905,624.5,943.81,597.93Z" transform="translate(-626.71 -326.71)"/></svg>