<svg id="version3" xmlns="http://www.w3.org/2000/svg" viewBox="0 0 1039.88 197.14"><defs><style>.cls-1{fill:#ebbe4c;}.cls-2{fill:#272d6e;}</style></defs><title>prytaneumm logo3</title><path class="cls-1" d="M433.92,574a14.06,14.06,0,0,1-28.09-.06c0-.22,0-.44,0-.67a14,14,0,0,1,4.75-10.53,14.53,14.53,0,0,1,1.24-1,14,14,0,0,0,5.64-7.83,13.8,13.8,0,0,0,.45-3.54V550a13.49,13.49,0,0,1,6.27,9.9c0,.48.08,1,.09,1.45v.09a13.33,13.33,0,0,1-1.61,6.38,3.88,3.88,0,0,0,3.28,5.76H426a6.24,6.24,0,0,0,6.24-6.24,5.49,5.49,0,0,0-.07-.91A14,14,0,0,1,433.92,574Z" transform="translate(-373.89 -514.4)"/><path class="cls-2" d="M392.31,590.86v-59h39.84c1.31,0,2.8.07,4.5.21a33.87,33.87,0,0,1,4.81.73,23.59,23.59,0,0,1,11.59,6,27.2,27.2,0,0,1,6.57,10.35,35.91,35.91,0,0,1,0,24.31,27.2,27.2,0,0,1-6.57,10.35,21,21,0,0,1-5.15,3.72c-1.31,11.29-5,17.11-10.57,20.09a.29.29,0,0,0,.2.55,95.9,95.9,0,0,0,15.76-3.83,39.13,39.13,0,0,0,22.62-20.28c.16-.36.32-.72.47-1.08a58.22,58.22,0,0,0,.05-43.25,40.39,40.39,0,0,0-12.36-16.25q-8.24-6.46-20.33-8.32a43.19,43.19,0,0,0-5.8-.68c-2-.1-3.72-.15-5.17-.15H373.89v149h18.42V590.86Z" transform="translate(-373.89 -514.4)"/><path class="cls-2" d="M438.42,587.5a2.88,2.88,0,0,1,2.84,3.33,21.64,21.64,0,0,1-42.77,0,2.88,2.88,0,0,1,2.84-3.33Q419.89,600.19,438.42,587.5Z" transform="translate(-373.89 -514.4)"/><path class="cls-2" d="M499.86,662.2v-111h16.35V578l-2.68-3.5a40.33,40.33,0,0,1,5.09-9.45,36.11,36.11,0,0,1,16.81-12.39,44.17,44.17,0,0,1,11.1-2.16,39.3,39.3,0,0,1,10.59.67v17.17a36.32,36.32,0,0,0-12.64-.72,26.13,26.13,0,0,0-12.75,4.93,28.21,28.21,0,0,0-8.28,9.3,39,39,0,0,0-4.06,11.72,73.61,73.61,0,0,0-1.13,12.91V662.2Z" transform="translate(-373.89 -514.4)"/><path class="cls-2" d="M590,711.54l21.48-58.39.31,17.27L563.29,551.17h19.22l38,95.91H614l35.67-95.91h18.61L607.8,711.54Z" transform="translate(-373.89 -514.4)"/><path class="cls-2" d="M681.1,566.28V551.17h74.32v15.11Zm74.32,95.92a80.48,80.48,0,0,1-19.48,1.69A43.8,43.8,0,0,1,718.77,660a23.59,23.59,0,0,1-11.35-11.15,32.15,32.15,0,0,1-3.55-13.31q-.25-6.74-.26-15.27V520.33h18.3v99.1c0,4.52.05,8.4.15,11.62a18.11,18.11,0,0,0,2.11,8.32q3.71,6.58,11.77,7.71a68.28,68.28,0,0,0,19.48-.61Z" transform="translate(-373.89 -514.4)"/><path class="cls-2" d="M809.6,665.28q-12.44,0-20.82-4.58a31.36,31.36,0,0,1-12.64-12.07,35,35,0,0,1-1-31.57,29.61,29.61,0,0,1,9.41-10.69,48.66,48.66,0,0,1,14.55-6.78,172.83,172.83,0,0,1,17.68-3.75q9.76-1.61,19.84-2.93t18.91-2.57l-6.57,3.8q.19-14.7-6-21.85t-21.38-7.14A33,33,0,0,0,804,569.78q-7.56,4.62-10.64,14.8L776,579.34q4-14.61,15.53-22.93t30.32-8.33q15.12,0,26,5.4a32,32,0,0,1,15.58,16.3,35.11,35.11,0,0,1,3,11.15,123.86,123.86,0,0,1,.62,12.59V662.2H850.72V635.57l3.81,2.47q-6.27,13.56-17.58,20.4T809.6,665.28ZM812.38,650a38.57,38.57,0,0,0,17.11-3.54,32.13,32.13,0,0,0,11.67-9.36,30.17,30.17,0,0,0,5.76-12.7A47.74,47.74,0,0,0,848.56,613q.21-6.27.21-9.76l6.37,2.77q-8.94,1.34-17.63,2.47t-16.34,2.36a124.93,124.93,0,0,0-13.83,3,42.61,42.61,0,0,0-8.48,3.76,19.36,19.36,0,0,0-6.38,5.86,15.05,15.05,0,0,0-2.41,8.68,17.38,17.38,0,0,0,2.31,8.64,17,17,0,0,0,7.2,6.68Q804.46,650,812.38,650Z" transform="translate(-373.89 -514.4)"/><path class="cls-2" d="M893.59,662.2v-111H910v29.71h2.06V662.2Zm79.16,0V606.58a77.83,77.83,0,0,0-1.44-15.11,42.4,42.4,0,0,0-4.83-13.16,25,25,0,0,0-9.2-9.25q-5.81-3.4-14.65-3.4A31.74,31.74,0,0,0,930.14,568a25.48,25.48,0,0,0-9.61,7,32.68,32.68,0,0,0-6.22,11.82,57,57,0,0,0-2.21,16.81l-12-3.7q0-16,5.81-27.65a41.91,41.91,0,0,1,16.34-17.84q10.54-6.22,24.83-6.22,10.8,0,18.4,3.39a36.67,36.67,0,0,1,12.65,9.05A44.8,44.8,0,0,1,986,573.27a62.93,62.93,0,0,1,4.06,14.08,83.17,83.17,0,0,1,1.18,13.47V662.2Z" transform="translate(-373.89 -514.4)"/><path class="cls-2" d="M1065.07,665.28q-16.35,0-28.53-7.25a49.91,49.91,0,0,1-19-20.25q-6.78-13-6.78-30.38,0-18.2,6.68-31.51a49.14,49.14,0,0,1,18.66-20.56q12-7.25,28.12-7.25,16.76,0,28.52,7.71t17.69,22q5.91,14.3,5.08,34H1097v-6.58q-.32-20.46-8.33-30.58t-23.85-10.13q-17,0-25.8,10.9t-8.84,31.25q0,19.64,8.84,30.43t25.19,10.8a35.54,35.54,0,0,0,19.12-5,34.26,34.26,0,0,0,12.74-14.5l17.58,6.07a49.53,49.53,0,0,1-19.48,22.77A54.13,54.13,0,0,1,1065.07,665.28Zm-41-53.46v-14.7h82v14.7Z" transform="translate(-373.89 -514.4)"/><path class="cls-2" d="M1180.52,665.07q-10.8,0-18.41-3.39a36.63,36.63,0,0,1-12.64-9,44.46,44.46,0,0,1-7.92-12.54,62.78,62.78,0,0,1-4.06-14.08,83.17,83.17,0,0,1-1.18-13.47V551.17h18.5v55.61a78,78,0,0,0,1.44,15.12,41.53,41.53,0,0,0,4.89,13.15,25.43,25.43,0,0,0,9.25,9.26q5.8,3.39,14.55,3.39a31.78,31.78,0,0,0,12.49-2.37,25.56,25.56,0,0,0,9.61-7,32.82,32.82,0,0,0,6.22-11.87,57.35,57.35,0,0,0,2.21-16.76l12,3.7q0,16-5.81,27.66a41.85,41.85,0,0,1-16.35,17.83Q1194.81,665.08,1180.52,665.07Zm37-2.87V632.49h-2V551.17h18.4v111Z" transform="translate(-373.89 -514.4)"/><path class="cls-2" d="M1262.55,662.2v-111h16.35v29.71h2V662.2Zm66.51,0,.11-70.32q0-12.64-6.58-20t-17.48-7.29q-10.78,0-17.48,7.45T1281,591.67l-9.66-5.75a36.42,36.42,0,0,1,5.14-19.28,37.32,37.32,0,0,1,14-13.42,40.42,40.42,0,0,1,20-4.93,38.51,38.51,0,0,1,19.53,4.78,32.38,32.38,0,0,1,12.85,13.57q4.52,8.79,4.52,20.82l-.1,74.74Zm66.31,0,.1-71q0-12.43-6.63-19.48t-17.22-7a25.18,25.18,0,0,0-11.71,2.87,22.39,22.39,0,0,0-9.05,8.84q-3.49,6-3.5,15.32l-9.66-3.9a39.57,39.57,0,0,1,4.88-20.72,36.08,36.08,0,0,1,13.93-13.83,40.23,40.23,0,0,1,20-4.93q17.37,0,27.34,10.59t10,28.27l-.1,75.05Z" transform="translate(-373.89 -514.4)"/></svg>