<svg xmlns="http://www.w3.org/2000/svg" xmlns:xlink="http://www.w3.org/1999/xlink" viewBox="0 0 822.99 523.8"><defs><style>.cls-1,.cls-10,.cls-12,.cls-16,.cls-4{fill:none;}.cls-2{fill:#f7f7f7;}.cls-3{fill:#e2e2e2;}.cls-4{stroke:#c9c9c9;}.cls-10,.cls-4{stroke-miterlimit:10;}.cls-5{fill:#c9c9c9;}.cls-6{fill:#c5cbe3;}.cls-7{fill:#d79922;}.cls-8{fill:#4056a1;}.cls-9{fill:#f13c20;}.cls-10,.cls-12{stroke:#f3f1ee;stroke-width:2px;}.cls-11{fill:#e8adaa;}.cls-12,.cls-16{stroke-linecap:round;stroke-linejoin:round;}.cls-13{fill:#ed8277;}.cls-14{fill:#bc7a11;}.cls-15{fill:#273d7c;}.cls-16{stroke:#171818;}.cls-17{fill:#cebd93;}.cls-18,.cls-22{fill:#efe1ba;}.cls-19{fill:#171818;}.cls-20{clip-path:url(#clip-path);}.cls-21{fill:#d8c69a;}.cls-22{opacity:0.7;}.cls-23{fill:#9da7c6;}</style><clipPath id="clip-path" transform="translate(-142 -262)"><circle class="cls-1" cx="848.49" cy="486.5" r="116.5"/></clipPath></defs><g id="app"><rect class="cls-2" x="185" width="442" height="281" rx="21.06"/><path class="cls-3" d="M464,0H605.94A21.06,21.06,0,0,1,627,21.06V259.94A21.06,21.06,0,0,1,605.94,281H464a0,0,0,0,1,0,0V0A0,0,0,0,1,464,0Z"/><rect class="cls-2" x="474.5" y="12.5" width="142" height="77" rx="9.43"/><rect class="cls-2" x="474.5" y="101.5" width="142" height="77" rx="9.43"/><rect class="cls-2" x="474.5" y="191.5" width="142" height="77" rx="9.43"/><rect class="cls-3" x="201" y="39" width="247" height="203" rx="17.99"/><line class="cls-4" x1="489" y1="215" x2="570.55" y2="215"/><line class="cls-4" x1="489" y1="225" x2="570.55" y2="225"/><line class="cls-4" x1="489" y1="204.82" x2="515.02" y2="204.5"/><path class="cls-5" d="M633.82,516.94,637,514h.85l-.85,3.69h3.38s1.39-.21,0,2.68l-1.38,2.9h-5.18Z" transform="translate(-142 -262)"/><rect class="cls-5" x="489" y="255.64" width="1.65" height="5.65"/><line class="cls-4" x1="489" y1="125" x2="570.55" y2="125"/><line class="cls-4" x1="489" y1="155" x2="570.55" y2="155"/><line class="cls-4" x1="489.48" y1="135" x2="593" y2="135"/><line class="cls-4" x1="489.48" y1="145" x2="580" y2="145"/><line class="cls-4" x1="489" y1="114.82" x2="515.02" y2="114.5"/><path class="cls-5" d="M633.82,426.94,637,424h.85l-.85,3.69h3.38s1.39-.21,0,2.68l-1.38,2.9h-5.18Z" transform="translate(-142 -262)"/><rect class="cls-5" x="489" y="165.64" width="1.65" height="5.65"/><line class="cls-4" x1="489" y1="67" x2="570.55" y2="67"/><line class="cls-4" x1="489" y1="37" x2="570.55" y2="37"/><line class="cls-4" x1="489.48" y1="57" x2="593" y2="57"/><line class="cls-4" x1="489.48" y1="47" x2="580" y2="47"/><line class="cls-4" x1="489" y1="26.82" x2="515.02" y2="26.5"/><path class="cls-5" d="M633.82,338.94,637,336h.85l-.85,3.69h3.38s1.39-.21,0,2.68l-1.38,2.9h-5.18Z" transform="translate(-142 -262)"/><rect class="cls-5" x="489" y="77.64" width="1.65" height="5.65"/><ellipse class="cls-2" cx="324.5" cy="141.5" rx="60.5" ry="79"/><path class="cls-2" d="M358.9,499.71c64-38,133.72-41.73,211,0A6,6,0,0,1,573,505H356v-.16A6,6,0,0,1,358.9,499.71Z" transform="translate(-142 -262)"/></g><g id="bg_circles" data-name="bg circles"><circle class="cls-6" cx="116.5" cy="193.5" r="116.5"/><circle class="cls-7" cx="706.49" cy="224.5" r="116.5"/><circle class="cls-6" cx="639.74" cy="402.54" r="9.54"/><circle class="cls-6" cx="182.08" cy="339.2" r="13.92"/><circle class="cls-7" cx="253" cy="370" r="7"/><circle class="cls-8" cx="694.5" cy="395.5" r="6.5"/><circle class="cls-8" cx="244.39" cy="342.89" r="8.61"/><circle class="cls-7" cx="731.04" cy="380.23" r="14.96"/><circle class="cls-6" cx="191.64" cy="369.64" r="9.36"/><circle class="cls-7" cx="197" cy="363" r="7"/><circle class="cls-8" cx="280.79" cy="391.48" r="5.21"/><circle class="cls-7" cx="219.6" cy="350.48" r="9.4"/><circle class="cls-6" cx="225.2" cy="357.08" r="5.21"/><circle class="cls-8" cx="628.2" cy="408.08" r="5.21"/><circle class="cls-6" cx="656.2" cy="427.08" r="5.21"/><circle class="cls-7" cx="665.2" cy="382.08" r="9.4"/><circle class="cls-8" cx="688.2" cy="413.08" r="8.61"/></g><g id="actions"><path class="cls-9" d="M289,334V272.25a7,7,0,0,0-7-7L158,265a7,7,0,0,0-7,7v43a7,7,0,0,0,7,7H273Z" transform="translate(-142 -262)"/><line class="cls-10" x1="25.24" y1="40" x2="128" y2="40"/><line class="cls-10" x1="25.24" y1="30" x2="128" y2="30"/><line class="cls-10" x1="25.24" y1="21" x2="128" y2="21"/><path class="cls-9" d="M641.34,377.51l13-18.19,4.32-.9-.41,19.66,17.2-3.59s6.81-2.55,2.85,13.64l-4,16.18-26.31,5.49Z" transform="translate(-142 -262)"/><rect class="cls-9" x="630.64" y="382.91" width="8.55" height="29.32" transform="translate(-209.79 -124.02) rotate(-11.78)"/><polygon class="cls-11" points="299.52 373.87 314.85 423.36 383.23 423.36 366.63 373.87 299.52 373.87"/><line class="cls-12" x1="314.06" y1="382.83" x2="352.91" y2="382.83"/><line class="cls-12" x1="317.16" y1="392.83" x2="345.42" y2="392.83"/><line class="cls-12" x1="321.16" y1="402.83" x2="362.21" y2="402.83"/><polygon class="cls-13" points="304.52 361.87 319.85 411.36 388.23 411.36 371.63 361.87 304.52 361.87"/><line class="cls-12" x1="319.06" y1="370.83" x2="357.91" y2="370.83"/><line class="cls-12" x1="322.16" y1="380.83" x2="350.42" y2="380.83"/><line class="cls-12" x1="326.16" y1="390.83" x2="367.21" y2="390.83"/><polygon class="cls-9" points="311.36 350.92 326.69 400.42 395.08 400.42 378.48 350.92 311.36 350.92"/><line class="cls-12" x1="325.9" y1="359.88" x2="364.75" y2="359.88"/><line class="cls-12" x1="329" y1="369.88" x2="357.27" y2="369.88"/><line class="cls-12" x1="333" y1="379.88" x2="374.06" y2="379.88"/></g><g id="speaker"><g id="hair"><path id="hair-2" data-name="hair" class="cls-7" d="M211,378s1,15-14,33-5.87,36.36-5.87,36.36S166,458,167,477s4.69,25.46,4.69,25.46l164.08-27.71s16.4-9,3.82-27.39-28.89-12.18-28.89-12.18,5.65-20-13-25.6C288,406,296,388,296,388s2-15-11-15.49S265,356,265,356C261.76,344.27,241.62,356.94,211,378Z" transform="translate(-142 -262)"/><path class="cls-14" d="M200.2,406.88S189,442,203,451c8.15,5.24-2.8,11.57-2.8,11.57S184,466,183,471s-3.11,24.24,4.45,29.12S200,502.76,200,502.76l-28.35-.3S168,495,167,477c-1.05-18.6,24.09-30.07,24.13-29.64C184.26,429.65,192,416,200.2,406.88Z" transform="translate(-142 -262)"/></g><path id="arm" class="cls-8" d="M229,516.82l39.14-10.94a18.41,18.41,0,0,1,19.62,6.64q10.51,13.86,12.46,27.57A18.35,18.35,0,0,1,282,561l-83-6-2-31.2Z" transform="translate(-142 -262)"/><g id="body"><path class="cls-8" d="M206.14,450.53a319.39,319.39,0,0,1,88.36-8.28,40.39,40.39,0,0,1,32.11,18.45C345.92,490.71,354,501,354,501l43.85-51.67a17.49,17.49,0,0,1,18-5.63,49.31,49.31,0,0,1,26.43,18.62A17.69,17.69,0,0,1,441,484.67L371,560c-8.28,9-27.1,4.25-35.37-4.76L307,524l3,36L167,528l9.08-46.53A40.31,40.31,0,0,1,206.14,450.53Z" transform="translate(-142 -262)"/><polygon class="cls-15" points="71.57 242.77 75.5 257.33 69 259.37 71.57 242.77"/><path class="cls-16" d="M213.93,502.46,211,521.37l56.9-15.51a23.53,23.53,0,0,1,23.31,6.46q15.44,16.38,9.9,41.09" transform="translate(-142 -262)"/><path class="cls-8" d="M221,447.36v-13a6.17,6.17,0,0,1,3.87-5.74q24.69-9.87,54.71-6.36A6.17,6.17,0,0,1,285,428.4V442Z" transform="translate(-142 -262)"/><path class="cls-15" d="M232,426l-6,1.79s-5,.67-5,6.8v12.77l5.17-.35C225.25,434.26,227.26,427.38,232,426Z" transform="translate(-142 -262)"/><line class="cls-16" x1="212" y1="239" x2="204.41" y2="247.86"/></g><g id="hand2"><path class="cls-17" d="M327.83,500.23V476.94a6.34,6.34,0,0,1,.88-3.29c1-1.72,2.89-2.69,4.76,6.44a.46.46,0,0,0,.89.05c1.05-3.28,4-1.44,4-1.44l1.19,31.24a4,4,0,0,1-6.22,3.52l-5.53-3.6Z" transform="translate(-142 -262)"/><path class="cls-18" d="M279.15,519.78a9.88,9.88,0,0,1,3.55-2.7c4.71-2.09,19-9.91,31.3-32.08,2.4-4.8,3.88-3.84,4.68-2.3a5.63,5.63,0,0,1,.44,3.81l-3.48,15.95S315,515,324,505s18-31,18-31c3.38-4.82,5.29-4.41,4,1l-6,25-.08,12.46a9.09,9.09,0,0,1-4.61,7.84l-42,23.8a9.62,9.62,0,0,1-8.17.7C275.16,541,271.39,529.12,279.15,519.78Z" transform="translate(-142 -262)"/></g><g id="head"><path class="cls-18" d="M236,407l2.15,21.31c8.39,4.3,17.25,4.93,27.22-3.08L263,411s31,1.66-10-54.17C239,341,218,373,218,373l9.72,17.37S212,387,216,400,236,407,236,407Z" transform="translate(-142 -262)"/><polyline class="cls-16" points="114 117 123.34 129.39 119.61 132.19"/><path class="cls-16" d="M266.5,396.5l-8,4s4,5.52,8,3.26S266.5,396.5,266.5,396.5Z" transform="translate(-142 -262)"/><circle class="cls-19" cx="108" cy="124" r="2"/><circle class="cls-19" cx="122" cy="119" r="2"/><path class="cls-16" d="M220.5,394.5s7-3,9,3a3.41,3.41,0,0,0-4.5,2.9,4.15,4.15,0,0,0,2.66,3.91" transform="translate(-142 -262)"/><path class="cls-16" d="M263,411s-8.5.77-13-1.37" transform="translate(-142 -262)"/></g><g id="bangs"><path class="cls-7" d="M211,378c12.72-22.45,29-33.93,51.61-25.57L250,360s-5,5-6,15c-1.64,16.41-16.28,15.37-16.28,15.37Z" transform="translate(-142 -262)"/><path class="cls-7" d="M250,360s10,8,14,8h4l-10.81-15.57Z" transform="translate(-142 -262)"/></g><g id="hand"><path class="cls-18" d="M413.79,449.18s27.27-60.67,29.59-45.3L438,420s-2,9,8-4a71.51,71.51,0,0,1,22-19s11-4,5,3-1,2-1,2c.55.07,11.56-5.65-1,8-1,2,4-1,4-1s3-1,0,4-39.3,52.67-39.3,52.67C420.87,468.67,413.27,463.51,413.79,449.18Z" transform="translate(-142 -262)"/><path class="cls-16" d="M439.87,414.4,438,420v2.52s6,13.3,0,19.39" transform="translate(-142 -262)"/></g></g><g id="attendee"><path class="cls-18" d="M772.78,480.87l-2.87,51.5-24.19-56.85a18.29,18.29,0,0,0-15.45-11q-15.6-1.12-26,7.55a17.38,17.38,0,0,0-4.09,21.71l52.63,97.52c7.09,13.13,26.62,12.85,33.3-.48l17-33.85Z" transform="translate(-142 -262)"/><g class="cls-20"><g id="body-2" data-name="body"><path class="cls-18" d="M785.36,464.79c20.36-7.62,60.65-16.85,119-3.58a19.37,19.37,0,0,1,14.15,13.86L946,572.55c4.28,15.18-6.38,30.45-21.24,30.45H796.36L773.2,487.9C771.22,478,776.42,468.13,785.36,464.79Z" transform="translate(-142 -262)"/></g><polygon class="cls-21" points="753 275 748.85 293 757.41 293 753 275"/><g id="arm-2" data-name="arm"><path id="arm-3" data-name="arm" class="cls-22" d="M923.19,554.63l-93.06,2.31a13.42,13.42,0,0,0-12.65,9.88c-3.43,12.94-.72,24.09,11.1,32.59a13.15,13.15,0,0,0,7.7,2.42h88.27a13.45,13.45,0,0,0,12.11-19.3Z" transform="translate(-142 -262)"/><path id="arm_line" data-name="arm line" class="cls-16" d="M894.57,535.28,899,554.63l-70.88,2.17c-6.68.21-12,7.26-12,15.89v5.54" transform="translate(-142 -262)"/><path class="cls-16" d="M819.54,593a13.68,13.68,0,0,0,6.76,10" transform="translate(-142 -262)"/></g><path class="cls-21" d="M850.76,454.52s0,.84-3.88,3.66,22.8-2.68,22.8-2.68C862.83,454.9,856.4,454.51,850.76,454.52Z" transform="translate(-142 -262)"/><path id="head-2" data-name="head" class="cls-6" d="M846.88,433.91l4,21c-6.84,6.49-15.16,9.6-27,4.72l-1.74-14.32S789.42,457.13,813,392c9-19.14,41.55,4.21,41.55,4.21l-4.42,19.41s14.13-7.68,14,5.93S846.88,433.91,846.88,433.91Z" transform="translate(-142 -262)"/><g id="face"><polyline class="cls-16" points="677.9 145.82 670.7 159.56 674.84 161.72"/><circle class="cls-19" cx="684.96" cy="151.75" r="2"/><circle class="cls-19" cx="670.33" cy="149.09" r="2"/><path class="cls-16" d="M810.33,431s5.09,3.53,14.63-5" transform="translate(-142 -262)"/></g><path id="hair-3" data-name="hair" class="cls-8" d="M809.63,398.86S813.11,376.3,839,381s22,19,22,19l-2.12,13.74L844,419l2-19Z" transform="translate(-142 -262)"/><g id="ear"><path class="cls-6" d="M848,421l-1.12,12.91s16.31,1.18,17.21-12.36c.64-9.46-6.91-8.6-11.52-7.22a5.93,5.93,0,0,0-4.11,4.47Z" transform="translate(-142 -262)"/><path class="cls-16" d="M859.49,419.5s-7-3-9,3a3.41,3.41,0,0,1,4.5,2.9,4.15,4.15,0,0,1-2.67,3.91" transform="translate(-142 -262)"/></g></g><g id="hand2-2" data-name="hand2"><path class="cls-23" d="M769,590s12.63-2.61,12.32-4.81S782,593,782,593C772.61,595.2,769.31,593.55,769,590Z" transform="translate(-142 -262)"/></g><line class="cls-16" x1="628" y1="270.37" x2="634" y2="282"/><g id="hand-2" data-name="hand"><path class="cls-6" d="M714,470c3.67.3,9.22-6.49,10.9-11.77-2.75-10.88-2.16-8.8-7.56-18.14a13.09,13.09,0,0,0-5.52-5.22l-17-8.4s-4.51-1-1.78,3.34S711,443.2,711,443.2s-5.33,10.47-2,18.8c2.24,6.45-8,10-12,6,3.13,4.09,10.22,7.79,17,2" transform="translate(-142 -262)"/><path class="cls-6" d="M730.91,471.42s-23-58.59-38.37-63.56c-5.12-1.66,1.69,7.53,1.69,7.53s12.78,17.55,12.64,21.07c0,0-16.64-3.39-18.43-.26s-3.64,20.29-3.64,20.29.41,6,4.12,3.63a5.37,5.37,0,0,0,5.2.75c.69-.32,4.58,10.24,7.33,15.06,2.87,5.06,5.06,5.15,5.06,5.15C717.82,484.21,724.7,478.87,730.91,471.42Z" transform="translate(-142 -262)"/><path class="cls-6" d="M698,469c11,11,21.33-1.57,27.9-9.77l5,12.19C726.59,482.19,717.84,485.53,705,482Z" transform="translate(-142 -262)"/><path class="cls-16" d="M712.82,434.92l-18.12-8.73s-4.48-1.41-1.9,3.47,18,13.24,18,13.24-6.73,9.82-2,16.33" transform="translate(-142 -262)"/></g><path class="cls-6" d="M830.5,571.5l-21.26-.92a10.68,10.68,0,0,0-3.42.39c-8.76,2.55-16.62,6.24-23.13,11.68l-7.41,13.55a5.66,5.66,0,0,0-.66,2.16L773,615s1,2.35,3.23-2.08l-.23,4.2s3.66,1.36,5.08-3.13c0,0-.5,5.46,4,1.48l7.81-16.23,8.9-6,28.75.34C837.64,586.67,839.38,579.45,830.5,571.5Z" transform="translate(-142 -262)"/><path class="cls-16" d="M834.5,439.5c-2.82,3-8.78,5.38-12.39,5.86" transform="translate(-142 -262)"/></g><g id="moderator"><path class="cls-6" d="M555.5,695.43S525.94,679,523,652c0-5,4,2,4,2s9.47,15.71,12.24,14.36c1-.47.27-3.47-1-7.21a71.5,71.5,0,0,0-16.91-26.85L521,634c-2-2,2-2,2-2s7.94,3,15,12.48c0,0,5-2.48,8,2.52a7,7,0,0,1,7,3s6.34,1.14,7,7l-4.62,40.17" transform="translate(-142 -262)"/><path id="head-3" data-name="head" class="cls-6" d="M659.41,576.25,671.83,609c-4,9.86-19.84,11.29-34,12.83l1.67-21.47s-27.52,19-32.92-56.14c.47-23.17,43.65-8.33,43.65-8.33l4.24,21s10.83-14.85,16.76-1.66S659.41,576.25,659.41,576.25Z" transform="translate(-142 -262)"/><g id="body-3" data-name="body"><path id="body-4" data-name="body" class="cls-7" d="M623.37,614.71c27.08-3.6,55.22-2.28,84.37,3.72a32.55,32.55,0,0,1,26,29.1l8.92,108.89a27.08,27.08,0,0,1-27.24,29.08H583.22a34.59,34.59,0,0,1-34.5-37.12l6.74-91.89a14.16,14.16,0,0,1,10.42-12.61C580.37,640,590,641,593.73,648l2.23-8.94A32.64,32.64,0,0,1,623.37,614.71Z" transform="translate(-142 -262)"/><path class="cls-7" d="M592,644H581.63l.37,18h20.12l-1.92-11.07A8.36,8.36,0,0,0,592,644Z" transform="translate(-142 -262)"/></g><path id="collar" class="cls-7" d="M634.44,613.66s14.55-14.51,48-16.43a9.59,9.59,0,0,1,10.16,9.95l-.4,9.94Z" transform="translate(-142 -262)"/><path class="cls-18" d="M599,542.18h20.85L623.71,613l60.07-35.41s7.16-42.37-13.24-57c-15.94-11.4-27.06-10.67-31.16-9.8-1.54.32-3.09.64-4.64.87C614.63,514.71,599.08,525.18,599,542.18Z" transform="translate(-142 -262)"/><path class="cls-6" d="M567,651c7,8.68,15,9.21,24,2,0,0,0-18,6-23s21.9-31.79,21.9-31.79,2.74-4.4-2.08-3.31S604,606,604,606l8.37-15.56s6,3.43,7.31,3S612,582,612,582s-2-1-4,2a29.58,29.58,0,0,1-3,4s-5-2-8,1c0,0-4,0-6,2l-3,3s-.6.81-4,2C577.05,598.43,563.25,650.55,567,651Z" transform="translate(-142 -262)"/><line class="cls-16" x1="452.62" y1="382.44" x2="437.5" y2="482.5"/><path class="cls-14" d="M731,781l-9-61.55-3.26,65.85A32.65,32.65,0,0,0,731,781Z" transform="translate(-142 -262)"/><path class="cls-16" d="M718.75,785.3c0-14.2,3.75-73.8,3.75-73.8" transform="translate(-142 -262)"/><path class="cls-8" d="M167,528c16.13,17,25.06,26.76,49.42,36a120.72,120.72,0,0,0,39.74,8.16A108.39,108.39,0,0,0,310,560Z" transform="translate(-142 -262)"/><path class="cls-14" d="M680.48,597.36l3.81-.05a8.24,8.24,0,0,1,8.33,8.23v10.19L683,614C684,614.8,688.11,602.64,680.48,597.36Z" transform="translate(-142 -262)"/></g></svg>