<svg width="83" height="81" viewBox="0 0 83 81" fill="none" xmlns="http://www.w3.org/2000/svg">
<path d="M80.8851 49.077L78.5876 46.823C76.9516 45.2181 76.714 42.7173 76.7263 40.4256C76.7263 38.7146 76.209 37.0419 75.2399 35.6192C74.2708 34.1965 72.8933 33.0876 71.2817 32.4328C69.6701 31.778 67.8967 31.6067 66.1859 31.9405C64.475 32.2743 62.9035 33.0983 61.67 34.3082C60.4365 35.5181 59.5965 37.0596 59.2562 38.7378C58.9159 40.416 59.0905 42.1555 59.7581 43.7363C60.4256 45.3172 61.5561 46.6683 63.0065 47.6189C64.4569 48.5696 66.1621 49.077 67.9065 49.077C70.2547 49.0658 72.8041 49.3064 74.4802 50.9511L74.8381 51.3022C76.0458 52.4872 76.7263 54.1082 76.7263 55.8003V66.2112C76.7263 71.0822 72.6925 75.031 67.8215 75.031C63.0435 75.031 59.0867 71.1576 59.0867 66.3796C59.0807 61.0277 56.9105 55.8966 53.0524 52.1122C49.1943 48.3278 43.9634 46.1991 38.5072 46.1932H20.8676C15.4115 46.1993 10.1806 48.328 6.32256 52.1124C2.4645 55.8968 0.294311 61.0277 0.288086 66.3796V71.7985C0.288086 76.7691 4.31752 80.7985 9.28809 80.7985H73.6062C78.5767 80.7985 82.6062 76.7691 82.6062 71.7985V53.1549C82.6082 52.3974 82.4572 51.6469 82.1618 50.947C81.8664 50.247 81.4325 49.6114 80.8851 49.077ZM6.16795 66.3796C6.17262 62.5569 3.41224 80.5024 6.16795 77.7994C8.92366 75.0963 25.7902 75.0355 29.6874 75.031L54.618 76.4152C56.0506 76.4168 55.8669 73.3713 55.1986 69.6527C54.8074 67.4764 46.7364 61.7611 46.6324 63.9699C46.6158 64.3221 46.7199 64.5774 46.9058 64.877L47.5211 65.8684C50.0011 69.8649 47.1269 75.031 42.4236 75.031H14.8193C10.0413 75.031 6.16795 71.1576 6.16795 66.3796Z" fill="#F9F9F9"/>
<path d="M29.6874 35.6192C32.5947 35.6192 44.3813 28.8505 46.7987 30.4349C49.216 32.0192 42.2161 16.5663 43.3287 19.201C44.4413 21.8357 39.0744 9.02156 38.5072 11.8185C37.94 14.6155 42.1374 28.4184 40.0816 30.4349C38.0259 32.4514 35.4066 33.8247 32.5552 34.381C29.7037 34.9374 26.7481 34.6518 24.0621 33.5605C21.3761 32.4692 21.8948 30.8003 20.2796 28.4291C18.6644 26.0579 22.1612 22.9756 22.1612 20.1238C22.1612 16.2997 15.4973 38.3233 18.254 35.6192C21.0108 32.9151 25.7888 35.6192 29.6874 35.6192ZM29.6874 0.0527344C25.6172 0.0527344 21.6383 1.23665 18.254 3.45476C14.8698 5.67288 12.232 8.82557 10.6744 12.5142C9.1168 16.2028 8.70926 20.2616 9.50332 24.1774C10.2974 28.0931 12.2574 31.69 15.1355 34.5131C18.0136 37.3363 21.6805 39.2588 25.6726 40.0377C29.6646 40.8166 33.8024 40.4169 37.5629 38.889C41.3233 37.3612 44.5374 34.7738 46.7987 31.4542C49.06 28.1345 50.2669 24.2317 50.2669 20.2392C50.2669 14.8854 48.0987 9.7509 44.2393 5.96521C40.3799 2.17951 35.1454 0.0527344 29.6874 0.0527344Z" fill="#F9F9F9"/>
</svg>
